<?xml version="1.0" encoding="UTF-8"?>
<svg width="32px" height="32px" viewBox="0 0 32 32" version="1.1" xmlns="http://www.w3.org/2000/svg" xmlns:xlink="http://www.w3.org/1999/xlink">
    <title>Group</title>
    <g id="Page-1" stroke="none" stroke-width="1" fill="none" fill-rule="evenodd">
        <g id="Group">
            <rect id="Rectangle" fill="#E5261F" x="0" y="0" width="32" height="32" rx="3"></rect>
            <path d="M12 8h6c2.21 0 4 1.79 4 4 0 1.306-0.835 2.417-2 2.83 1.165 0.413 2 1.524 2 2.83 0 2.21-1.79 4-4 4h-6V8zm2 2v4h4c1.104 0 2-0.896 2-2s-0.896-2-2-2h-4zm0 6v4h4c1.104 0 2-0.896 2-2s-0.896-2-2-2h-4z" id="B" fill="#FFFFFF" fill-rule="nonzero"></path>
        </g>
    </g>
</svg>
